<?xml version="1.0" encoding="UTF-8" standalone="no" ?>
<COLLADA xmlns="http://www.collada.org/2005/11/COLLADASchema" version="1.4.1">
    <asset>
        <contributor>
            <authoring_tool>SketchUp 15.0.9351</authoring_tool>
        </contributor>
        <created>2019-01-11T03:44:15Z</created>
        <modified>2019-01-11T03:44:15Z</modified>
        <unit meter="0.0254" name="inch" />
        <up_axis>Z_UP</up_axis>
    </asset>
    <library_visual_scenes>
        <visual_scene id="ID1">
            <node name="SketchUp">
                <instance_geometry url="#ID2">
                    <bind_material>
                        <technique_common>
                            <instance_material symbol="Material2" target="#ID3">
                                <bind_vertex_input semantic="UVSET0" input_semantic="TEXCOORD" input_set="0" />
                            </instance_material>
                            <instance_material symbol="Material3" target="#ID8">
                                <bind_vertex_input semantic="UVSET0" input_semantic="TEXCOORD" input_set="0" />
                            </instance_material>
                        </technique_common>
                    </bind_material>
                </instance_geometry>
                <instance_geometry url="#ID12">
                    <bind_material>
                        <technique_common>
                            <instance_material symbol="Material2" target="#ID8">
                                <bind_vertex_input semantic="UVSET0" input_semantic="TEXCOORD" input_set="0" />
                            </instance_material>
                            <instance_material symbol="Material3" target="#ID13">
                                <bind_vertex_input semantic="UVSET0" input_semantic="TEXCOORD" input_set="0" />
                            </instance_material>
                        </technique_common>
                    </bind_material>
                </instance_geometry>
                <instance_geometry url="#ID25">
                    <bind_material>
                        <technique_common>
                            <instance_material symbol="Material2" target="#ID8">
                                <bind_vertex_input semantic="UVSET0" input_semantic="TEXCOORD" input_set="0" />
                            </instance_material>
                            <instance_material symbol="Material3" target="#ID26">
                                <bind_vertex_input semantic="UVSET0" input_semantic="TEXCOORD" input_set="0" />
                            </instance_material>
                        </technique_common>
                    </bind_material>
                </instance_geometry>
                <instance_geometry url="#ID33">
                    <bind_material>
                        <technique_common>
                            <instance_material symbol="Material2" target="#ID8">
                                <bind_vertex_input semantic="UVSET0" input_semantic="TEXCOORD" input_set="0" />
                            </instance_material>
                            <instance_material symbol="Material3" target="#ID34">
                                <bind_vertex_input semantic="UVSET0" input_semantic="TEXCOORD" input_set="0" />
                            </instance_material>
                        </technique_common>
                    </bind_material>
                </instance_geometry>
                <instance_geometry url="#ID41">
                    <bind_material>
                        <technique_common>
                            <instance_material symbol="Material2" target="#ID26">
                                <bind_vertex_input semantic="UVSET0" input_semantic="TEXCOORD" input_set="0" />
                            </instance_material>
                            <instance_material symbol="Material3" target="#ID45">
                                <bind_vertex_input semantic="UVSET0" input_semantic="TEXCOORD" input_set="0" />
                            </instance_material>
                        </technique_common>
                    </bind_material>
                </instance_geometry>
            </node>
        </visual_scene>
    </library_visual_scenes>
    <library_geometries>
        <geometry id="ID2">
            <mesh>
                <source id="ID5">
                    <float_array id="ID10" count="168">0.6503228 4.636081 -0.5491926 1.150323 4.636081 -0.04919261 24.15032 4.636081 -0.5491926 0.6503228 4.636081 32.45081 1.150323 4.636081 31.95081 23.65032 4.636081 31.95081 23.65032 4.636081 -0.04919261 24.15032 4.636081 32.45081 0.6503228 4.636081 32.45081 23.65032 4.636081 31.95081 24.15032 4.636081 32.45081 23.65032 4.636081 -0.04919261 1.150323 4.636081 -0.04919261 24.15032 4.636081 -0.5491926 1.150323 4.636081 31.95081 0.6503228 4.636081 -0.5491926 0.6503228 3.636081 32.45081 24.15032 4.636081 32.45081 0.6503228 4.636081 32.45081 24.15032 3.636081 32.45081 24.15032 3.636081 32.45081 0.6503228 3.636081 32.45081 24.15032 4.636081 32.45081 0.6503228 4.636081 32.45081 24.15032 3.636081 -0.5491926 24.15032 4.636081 32.45081 24.15032 3.636081 32.45081 24.15032 4.636081 -0.5491926 24.15032 4.636081 -0.5491926 24.15032 3.636081 -0.5491926 24.15032 4.636081 32.45081 24.15032 3.636081 32.45081 0.6503228 4.636081 32.45081 0.6503228 3.636081 -0.5491926 0.6503228 3.636081 32.45081 0.6503228 4.636081 -0.5491926 0.6503228 4.636081 -0.5491926 0.6503228 4.636081 32.45081 0.6503228 3.636081 -0.5491926 0.6503228 3.636081 32.45081 24.15032 3.636081 -0.5491926 23.65032 3.636081 -0.04919261 1.150323 3.636081 -0.04919261 24.15032 3.636081 32.45081 23.65032 3.636081 31.95081 1.150323 3.636081 31.95081 0.6503228 3.636081 -0.5491926 0.6503228 3.636081 32.45081 24.15032 3.636081 32.45081 1.150323 3.636081 31.95081 0.6503228 3.636081 32.45081 1.150323 3.636081 -0.04919261 24.15032 3.636081 -0.5491926 0.6503228 3.636081 -0.5491926 23.65032 3.636081 31.95081 23.65032 3.636081 -0.04919261</float_array>
                    <technique_common>
                        <accessor count="56" source="#ID10" stride="3">
                            <param name="X" type="float" />
                            <param name="Y" type="float" />
                            <param name="Z" type="float" />
                        </accessor>
                    </technique_common>
                </source>
                <source id="ID6">
                    <float_array id="ID11" count="168">7.558965e-016 1 -3.22974e-016 7.558965e-016 1 -3.22974e-016 7.558965e-016 1 -3.22974e-016 7.558965e-016 1 -3.22974e-016 7.558965e-016 1 -3.22974e-016 7.558965e-016 1 -3.22974e-016 7.558965e-016 1 -3.22974e-016 7.558965e-016 1 -3.22974e-016 -7.558965e-016 -1 3.22974e-016 -7.558965e-016 -1 3.22974e-016 -7.558965e-016 -1 3.22974e-016 -7.558965e-016 -1 3.22974e-016 -7.558965e-016 -1 3.22974e-016 -7.558965e-016 -1 3.22974e-016 -7.558965e-016 -1 3.22974e-016 -7.558965e-016 -1 3.22974e-016 -2.096963e-029 -2.131628e-014 1 -2.096963e-029 -2.131628e-014 1 -2.096963e-029 -2.131628e-014 1 -2.096963e-029 -2.131628e-014 1 2.096963e-029 2.131628e-014 -1 2.096963e-029 2.131628e-014 -1 2.096963e-029 2.131628e-014 -1 2.096963e-029 2.131628e-014 -1 1 -1.065814e-014 1.399554e-015 1 -1.065814e-014 1.399554e-015 1 -1.065814e-014 1.399554e-015 1 -1.065814e-014 1.399554e-015 -1 1.065814e-014 -1.399554e-015 -1 1.065814e-014 -1.399554e-015 -1 1.065814e-014 -1.399554e-015 -1 1.065814e-014 -1.399554e-015 -1 -1.776357e-015 -6.459479e-016 -1 -1.776357e-015 -6.459479e-016 -1 -1.776357e-015 -6.459479e-016 -1 -1.776357e-015 -6.459479e-016 1 1.776357e-015 6.459479e-016 1 1.776357e-015 6.459479e-016 1 1.776357e-015 6.459479e-016 1 1.776357e-015 6.459479e-016 -1.436203e-015 -1 -5.921189e-016 -1.436203e-015 -1 -5.921189e-016 -1.436203e-015 -1 -5.921189e-016 -1.436203e-015 -1 -5.921189e-016 -1.436203e-015 -1 -5.921189e-016 -1.436203e-015 -1 -5.921189e-016 -1.436203e-015 -1 -5.921189e-016 -1.436203e-015 -1 -5.921189e-016 1.436203e-015 1 5.921189e-016 1.436203e-015 1 5.921189e-016 1.436203e-015 1 5.921189e-016 1.436203e-015 1 5.921189e-016 1.436203e-015 1 5.921189e-016 1.436203e-015 1 5.921189e-016 1.436203e-015 1 5.921189e-016 1.436203e-015 1 5.921189e-016</float_array>
                    <technique_common>
                        <accessor count="56" source="#ID11" stride="3">
                            <param name="X" type="float" />
                            <param name="Y" type="float" />
                            <param name="Z" type="float" />
                        </accessor>
                    </technique_common>
                </source>
                <vertices id="ID7">
                    <input semantic="POSITION" source="#ID5" />
                    <input semantic="NORMAL" source="#ID6" />
                </vertices>
                <triangles count="22" material="Material2">
                    <input offset="0" semantic="VERTEX" source="#ID7" />
                    <p>0 1 2 1 0 3 1 3 4 4 3 5 2 6 7 6 2 1 7 6 5 7 5 3 16 17 18 17 16 19 24 25 26 25 24 27 32 33 34 33 32 35 40 41 42 41 40 43 41 43 44 44 43 45 46 42 47 42 46 40 47 42 45 47 45 43</p>
                </triangles>
                <triangles count="22" material="Material3">
                    <input offset="0" semantic="VERTEX" source="#ID7" />
                    <p>8 9 10 9 11 10 12 13 11 10 11 13 9 8 14 14 8 12 8 15 12 13 12 15 20 21 22 23 22 21 28 29 30 31 30 29 36 37 38 39 38 37 48 49 50 49 51 50 52 53 51 50 51 53 49 48 54 54 48 55 48 52 55 51 55 52</p>
                </triangles>
            </mesh>
        </geometry>
        <geometry id="ID12">
            <mesh>
                <source id="ID18">
                    <float_array id="ID22" count="24">0.6503228 4.636081 -0.5491926 24.15032 3.636081 -0.5491926 0.6503228 3.636081 -0.5491926 24.15032 4.636081 -0.5491926 24.15032 4.636081 -0.5491926 0.6503228 4.636081 -0.5491926 24.15032 3.636081 -0.5491926 0.6503228 3.636081 -0.5491926</float_array>
                    <technique_common>
                        <accessor count="8" source="#ID22" stride="3">
                            <param name="X" type="float" />
                            <param name="Y" type="float" />
                            <param name="Z" type="float" />
                        </accessor>
                    </technique_common>
                </source>
                <source id="ID19">
                    <float_array id="ID23" count="24">8.527458e-016 4.457545e-014 -1 8.527458e-016 4.457545e-014 -1 8.527458e-016 4.457545e-014 -1 8.527458e-016 4.457545e-014 -1 -8.527458e-016 -4.457545e-014 1 -8.527458e-016 -4.457545e-014 1 -8.527458e-016 -4.457545e-014 1 -8.527458e-016 -4.457545e-014 1</float_array>
                    <technique_common>
                        <accessor count="8" source="#ID23" stride="3">
                            <param name="X" type="float" />
                            <param name="Y" type="float" />
                            <param name="Z" type="float" />
                        </accessor>
                    </technique_common>
                </source>
                <source id="ID21">
                    <float_array id="ID24" count="8">-9.887924e-016 -1.915135e-015 0.9791667 0.04166667 -1.047773e-015 0.04166667 0.9791667 -1.082467e-015</float_array>
                    <technique_common>
                        <accessor count="4" source="#ID24" stride="2">
                            <param name="S" type="float" />
                            <param name="T" type="float" />
                        </accessor>
                    </technique_common>
                </source>
                <vertices id="ID20">
                    <input semantic="POSITION" source="#ID18" />
                    <input semantic="NORMAL" source="#ID19" />
                </vertices>
                <triangles count="2" material="Material3">
                    <input offset="0" semantic="VERTEX" source="#ID20" />
                    <input offset="1" semantic="TEXCOORD" source="#ID21" />
                    <p>0 0 1 1 2 2 1 1 0 0 3 3</p>
                </triangles>
                <triangles count="2" material="Material2">
                    <input offset="0" semantic="VERTEX" source="#ID20" />
                    <p>4 5 6 7 6 5</p>
                </triangles>
            </mesh>
        </geometry>
        <geometry id="ID25">
            <mesh>
                <source id="ID28">
                    <float_array id="ID31" count="96">23.65032 4.636081 31.95081 23.65032 3.886081 -0.04919261 23.65032 3.886081 31.95081 23.65032 4.636081 -0.04919261 23.65032 4.636081 -0.04919261 23.65032 4.636081 31.95081 23.65032 3.886081 -0.04919261 23.65032 3.886081 31.95081 23.65032 3.886081 -0.04919261 1.150323 4.636081 -0.04919261 1.150323 3.886081 -0.04919261 23.65032 4.636081 -0.04919261 23.65032 4.636081 -0.04919261 23.65032 3.886081 -0.04919261 1.150323 4.636081 -0.04919261 1.150323 3.886081 -0.04919261 23.65032 4.636081 31.95081 1.150323 3.886081 31.95081 1.150323 4.636081 31.95081 23.65032 3.886081 31.95081 23.65032 3.886081 31.95081 23.65032 4.636081 31.95081 1.150323 3.886081 31.95081 1.150323 4.636081 31.95081 1.150323 3.886081 -0.04919261 1.150323 4.636081 31.95081 1.150323 3.886081 31.95081 1.150323 4.636081 -0.04919261 1.150323 4.636081 -0.04919261 1.150323 3.886081 -0.04919261 1.150323 4.636081 31.95081 1.150323 3.886081 31.95081</float_array>
                    <technique_common>
                        <accessor count="32" source="#ID31" stride="3">
                            <param name="X" type="float" />
                            <param name="Y" type="float" />
                            <param name="Z" type="float" />
                        </accessor>
                    </technique_common>
                </source>
                <source id="ID29">
                    <float_array id="ID32" count="96">-1 4.736952e-015 -1.221245e-015 -1 4.736952e-015 -1.221245e-015 -1 4.736952e-015 -1.221245e-015 -1 4.736952e-015 -1.221245e-015 1 -4.736952e-015 1.221245e-015 1 -4.736952e-015 1.221245e-015 1 -4.736952e-015 1.221245e-015 1 -4.736952e-015 1.221245e-015 -8.536381e-016 1.332268e-015 1 -8.536381e-016 1.332268e-015 1 -8.536381e-016 1.332268e-015 1 -8.536381e-016 1.332268e-015 1 8.536381e-016 -1.332268e-015 -1 8.536381e-016 -1.332268e-015 -1 8.536381e-016 -1.332268e-015 -1 8.536381e-016 -1.332268e-015 -1 1.578984e-016 1.421085e-014 -1 1.578984e-016 1.421085e-014 -1 1.578984e-016 1.421085e-014 -1 1.578984e-016 1.421085e-014 -1 -1.578984e-016 -1.421085e-014 1 -1.578984e-016 -1.421085e-014 1 -1.578984e-016 -1.421085e-014 1 -1.578984e-016 -1.421085e-014 1 1 8.852772e-030 7.21645e-016 1 8.852772e-030 7.21645e-016 1 8.852772e-030 7.21645e-016 1 8.852772e-030 7.21645e-016 -1 -8.852772e-030 -7.21645e-016 -1 -8.852772e-030 -7.21645e-016 -1 -8.852772e-030 -7.21645e-016 -1 -8.852772e-030 -7.21645e-016</float_array>
                    <technique_common>
                        <accessor count="32" source="#ID32" stride="3">
                            <param name="X" type="float" />
                            <param name="Y" type="float" />
                            <param name="Z" type="float" />
                        </accessor>
                    </technique_common>
                </source>
                <vertices id="ID30">
                    <input semantic="POSITION" source="#ID28" />
                    <input semantic="NORMAL" source="#ID29" />
                </vertices>
                <triangles count="8" material="Material3">
                    <input offset="0" semantic="VERTEX" source="#ID30" />
                    <p>0 1 2 1 0 3 8 9 10 9 8 11 16 17 18 17 16 19 24 25 26 25 24 27</p>
                </triangles>
                <triangles count="8" material="Material2">
                    <input offset="0" semantic="VERTEX" source="#ID30" />
                    <p>4 5 6 7 6 5 12 13 14 15 14 13 20 21 22 23 22 21 28 29 30 31 30 29</p>
                </triangles>
            </mesh>
        </geometry>
        <geometry id="ID33">
            <mesh>
                <source id="ID36">
                    <float_array id="ID39" count="96">23.65032 3.636081 -0.04919261 1.150323 3.886081 -0.04919261 1.150323 3.636081 -0.04919261 23.65032 3.886081 -0.04919261 23.65032 3.886081 -0.04919261 23.65032 3.636081 -0.04919261 1.150323 3.886081 -0.04919261 1.150323 3.636081 -0.04919261 23.65032 3.886081 31.95081 23.65032 3.636081 -0.04919261 23.65032 3.636081 31.95081 23.65032 3.886081 -0.04919261 23.65032 3.886081 -0.04919261 23.65032 3.886081 31.95081 23.65032 3.636081 -0.04919261 23.65032 3.636081 31.95081 1.150323 3.636081 -0.04919261 1.150323 3.886081 31.95081 1.150323 3.636081 31.95081 1.150323 3.886081 -0.04919261 1.150323 3.886081 -0.04919261 1.150323 3.636081 -0.04919261 1.150323 3.886081 31.95081 1.150323 3.636081 31.95081 1.150323 3.886081 31.95081 23.65032 3.636081 31.95081 1.150323 3.636081 31.95081 23.65032 3.886081 31.95081 23.65032 3.886081 31.95081 1.150323 3.886081 31.95081 23.65032 3.636081 31.95081 1.150323 3.636081 31.95081</float_array>
                    <technique_common>
                        <accessor count="32" source="#ID39" stride="3">
                            <param name="X" type="float" />
                            <param name="Y" type="float" />
                            <param name="Z" type="float" />
                        </accessor>
                    </technique_common>
                </source>
                <source id="ID37">
                    <float_array id="ID40" count="96">-8.487038e-016 -7.105427e-014 1 -8.487038e-016 -7.105427e-014 1 -8.487038e-016 -7.105427e-014 1 -8.487038e-016 -7.105427e-014 1 8.487038e-016 7.105427e-014 -1 8.487038e-016 7.105427e-014 -1 8.487038e-016 7.105427e-014 -1 8.487038e-016 7.105427e-014 -1 -1 1.421085e-014 -1.221245e-015 -1 1.421085e-014 -1.221245e-015 -1 1.421085e-014 -1.221245e-015 -1 1.421085e-014 -1.221245e-015 1 -1.421085e-014 1.221245e-015 1 -1.421085e-014 1.221245e-015 1 -1.421085e-014 1.221245e-015 1 -1.421085e-014 1.221245e-015 1 -1.421085e-014 7.21645e-016 1 -1.421085e-014 7.21645e-016 1 -1.421085e-014 7.21645e-016 1 -1.421085e-014 7.21645e-016 -1 1.421085e-014 -7.21645e-016 -1 1.421085e-014 -7.21645e-016 -1 1.421085e-014 -7.21645e-016 -1 1.421085e-014 -7.21645e-016 1.578984e-016 1.421085e-014 -1 1.578984e-016 1.421085e-014 -1 1.578984e-016 1.421085e-014 -1 1.578984e-016 1.421085e-014 -1 -1.578984e-016 -1.421085e-014 1 -1.578984e-016 -1.421085e-014 1 -1.578984e-016 -1.421085e-014 1 -1.578984e-016 -1.421085e-014 1</float_array>
                    <technique_common>
                        <accessor count="32" source="#ID40" stride="3">
                            <param name="X" type="float" />
                            <param name="Y" type="float" />
                            <param name="Z" type="float" />
                        </accessor>
                    </technique_common>
                </source>
                <vertices id="ID38">
                    <input semantic="POSITION" source="#ID36" />
                    <input semantic="NORMAL" source="#ID37" />
                </vertices>
                <triangles count="8" material="Material3">
                    <input offset="0" semantic="VERTEX" source="#ID38" />
                    <p>0 1 2 1 0 3 8 9 10 9 8 11 16 17 18 17 16 19 24 25 26 25 24 27</p>
                </triangles>
                <triangles count="8" material="Material2">
                    <input offset="0" semantic="VERTEX" source="#ID38" />
                    <p>4 5 6 7 6 5 12 13 14 15 14 13 20 21 22 23 22 21 28 29 30 31 30 29</p>
                </triangles>
            </mesh>
        </geometry>
        <geometry id="ID41">
            <mesh>
                <source id="ID42">
                    <float_array id="ID51" count="24">1.150323 3.886081 31.95081 23.65032 3.886081 -0.04919261 1.150323 3.886081 -0.04919261 23.65032 3.886081 31.95081 23.65032 3.886081 31.95081 1.150323 3.886081 31.95081 23.65032 3.886081 -0.04919261 1.150323 3.886081 -0.04919261</float_array>
                    <technique_common>
                        <accessor count="8" source="#ID51" stride="3">
                            <param name="X" type="float" />
                            <param name="Y" type="float" />
                            <param name="Z" type="float" />
                        </accessor>
                    </technique_common>
                </source>
                <source id="ID43">
                    <float_array id="ID52" count="24">-3.739785e-032 1 6.661338e-016 -3.739785e-032 1 6.661338e-016 -3.739785e-032 1 6.661338e-016 -3.739785e-032 1 6.661338e-016 3.739785e-032 -1 -6.661338e-016 3.739785e-032 -1 -6.661338e-016 3.739785e-032 -1 -6.661338e-016 3.739785e-032 -1 -6.661338e-016</float_array>
                    <technique_common>
                        <accessor count="8" source="#ID52" stride="3">
                            <param name="X" type="float" />
                            <param name="Y" type="float" />
                            <param name="Z" type="float" />
                        </accessor>
                    </technique_common>
                </source>
                <source id="ID50">
                    <float_array id="ID53" count="8">-0.01757656 0.9682596 -0.9958374 0.9682596 -0.01757656 -0.001437324 -0.9958374 -0.001437324</float_array>
                    <technique_common>
                        <accessor count="4" source="#ID53" stride="2">
                            <param name="S" type="float" />
                            <param name="T" type="float" />
                        </accessor>
                    </technique_common>
                </source>
                <vertices id="ID44">
                    <input semantic="POSITION" source="#ID42" />
                    <input semantic="NORMAL" source="#ID43" />
                </vertices>
                <triangles count="2" material="Material2">
                    <input offset="0" semantic="VERTEX" source="#ID44" />
                    <p>0 1 2 1 0 3</p>
                </triangles>
                <triangles count="2" material="Material3">
                    <input offset="0" semantic="VERTEX" source="#ID44" />
                    <input offset="1" semantic="TEXCOORD" source="#ID50" />
                    <p>4 0 5 1 6 2 7 3 6 2 5 1</p>
                </triangles>
            </mesh>
        </geometry>
    </library_geometries>
    <library_materials>
        <material id="ID3" name="Color_007">
            <instance_effect url="#ID4" />
        </material>
        <material id="ID8" name="Color_000">
            <instance_effect url="#ID9" />
        </material>
        <material id="ID13" name="Wood_Bamboo_Medium">
            <instance_effect url="#ID14" />
        </material>
        <material id="ID26" name="Color_008">
            <instance_effect url="#ID27" />
        </material>
        <material id="ID34" name="Color_002">
            <instance_effect url="#ID35" />
        </material>
        <material id="ID45" name="material_1">
            <instance_effect url="#ID46" />
        </material>
    </library_materials>
    <library_effects>
        <effect id="ID4">
            <profile_COMMON>
                <technique sid="COMMON">
                    <lambert>
                        <diffuse>
                            <color>0.227451 0.227451 0.227451 1</color>
                        </diffuse>
                    </lambert>
                </technique>
            </profile_COMMON>
        </effect>
        <effect id="ID9">
            <profile_COMMON>
                <technique sid="COMMON">
                    <lambert>
                        <diffuse>
                            <color>0.8901961 0.8901961 0.8901961 0</color>
                        </diffuse>
                        <transparent opaque="RGB_ZERO">
                            <color>1 1 1 1</color>
                        </transparent>
                        <transparency>
                            <float>1</float>
                        </transparency>
                    </lambert>
                </technique>
            </profile_COMMON>
        </effect>
        <effect id="ID14">
            <profile_COMMON>
                <newparam sid="ID16">
                    <surface type="2D">
                        <init_from>ID15</init_from>
                    </surface>
                </newparam>
                <newparam sid="ID17">
                    <sampler2D>
                        <source>ID16</source>
                    </sampler2D>
                </newparam>
                <technique sid="COMMON">
                    <lambert>
                        <diffuse>
                            <texture texture="ID17" texcoord="UVSET0" />
                        </diffuse>
                    </lambert>
                </technique>
            </profile_COMMON>
        </effect>
        <effect id="ID27">
            <profile_COMMON>
                <technique sid="COMMON">
                    <lambert>
                        <diffuse>
                            <color>0.1176471 0.1176471 0.1176471 1</color>
                        </diffuse>
                    </lambert>
                </technique>
            </profile_COMMON>
        </effect>
        <effect id="ID35">
            <profile_COMMON>
                <technique sid="COMMON">
                    <lambert>
                        <diffuse>
                            <color>0.7764706 0.7764706 0.7764706 1</color>
                        </diffuse>
                    </lambert>
                </technique>
            </profile_COMMON>
        </effect>
        <effect id="ID46">
            <profile_COMMON>
                <newparam sid="ID48">
                    <surface type="2D">
                        <init_from>ID47</init_from>
                    </surface>
                </newparam>
                <newparam sid="ID49">
                    <sampler2D>
                        <source>ID48</source>
                    </sampler2D>
                </newparam>
                <technique sid="COMMON">
                    <lambert>
                        <diffuse>
                            <texture texture="ID49" texcoord="UVSET0" />
                        </diffuse>
                    </lambert>
                </technique>
            </profile_COMMON>
        </effect>
    </library_effects>
    <library_images>
        <image id="ID15">
            <init_from>Sayumi&apos;s%20Picture%20frame%201/Wood_Bamboo_Medium.jpg</init_from>
        </image>
        <image id="ID47">
            <init_from>Sayumi&apos;s%20Picture%20frame%201/material_1.jpg</init_from>
        </image>
    </library_images>
    <scene>
        <instance_visual_scene url="#ID1" />
    </scene>
</COLLADA>
