<?xml version="1.0" encoding="UTF-8" standalone="no" ?>
<COLLADA xmlns="http://www.collada.org/2005/11/COLLADASchema" version="1.4.1">
    <asset>
        <contributor>
            <authoring_tool>SketchUp 15.0.9351</authoring_tool>
        </contributor>
        <created>2019-01-11T05:11:53Z</created>
        <modified>2019-01-11T05:11:53Z</modified>
        <unit meter="0.0254" name="inch" />
        <up_axis>Z_UP</up_axis>
    </asset>
    <library_visual_scenes>
        <visual_scene id="ID1">
            <node name="SketchUp">
                <instance_geometry url="#ID2">
                    <bind_material>
                        <technique_common>
                            <instance_material symbol="Material2" target="#ID3">
                                <bind_vertex_input semantic="UVSET0" input_semantic="TEXCOORD" input_set="0" />
                            </instance_material>
                            <instance_material symbol="Material3" target="#ID8">
                                <bind_vertex_input semantic="UVSET0" input_semantic="TEXCOORD" input_set="0" />
                            </instance_material>
                        </technique_common>
                    </bind_material>
                </instance_geometry>
                <instance_geometry url="#ID12">
                    <bind_material>
                        <technique_common>
                            <instance_material symbol="Material2" target="#ID8">
                                <bind_vertex_input semantic="UVSET0" input_semantic="TEXCOORD" input_set="0" />
                            </instance_material>
                            <instance_material symbol="Material3" target="#ID13">
                                <bind_vertex_input semantic="UVSET0" input_semantic="TEXCOORD" input_set="0" />
                            </instance_material>
                        </technique_common>
                    </bind_material>
                </instance_geometry>
                <instance_geometry url="#ID20">
                    <bind_material>
                        <technique_common>
                            <instance_material symbol="Material2" target="#ID13">
                                <bind_vertex_input semantic="UVSET0" input_semantic="TEXCOORD" input_set="0" />
                            </instance_material>
                            <instance_material symbol="Material3" target="#ID24">
                                <bind_vertex_input semantic="UVSET0" input_semantic="TEXCOORD" input_set="0" />
                            </instance_material>
                        </technique_common>
                    </bind_material>
                </instance_geometry>
                <instance_geometry url="#ID33">
                    <bind_material>
                        <technique_common>
                            <instance_material symbol="Material2" target="#ID8">
                                <bind_vertex_input semantic="UVSET0" input_semantic="TEXCOORD" input_set="0" />
                            </instance_material>
                            <instance_material symbol="Material3" target="#ID34">
                                <bind_vertex_input semantic="UVSET0" input_semantic="TEXCOORD" input_set="0" />
                            </instance_material>
                        </technique_common>
                    </bind_material>
                </instance_geometry>
            </node>
        </visual_scene>
    </library_visual_scenes>
    <library_geometries>
        <geometry id="ID2">
            <mesh>
                <source id="ID5">
                    <float_array id="ID10" count="192">0.6503228 4.636081 -0.5491926 1.181131 4.636081 -0.04919261 25.59829 4.636081 -0.5491926 0.6503228 4.636081 32.45081 1.181131 4.636081 31.95081 25.06748 4.636081 31.95081 25.06748 4.636081 -0.04919261 25.59829 4.636081 32.45081 0.6503228 4.636081 32.45081 25.06748 4.636081 31.95081 25.59829 4.636081 32.45081 25.06748 4.636081 -0.04919261 1.181131 4.636081 -0.04919261 25.59829 4.636081 -0.5491926 1.181131 4.636081 31.95081 0.6503228 4.636081 -0.5491926 0.6503228 3.636081 32.45081 25.59829 4.636081 32.45081 0.6503228 4.636081 32.45081 25.59829 3.636081 32.45081 25.59829 3.636081 32.45081 0.6503228 3.636081 32.45081 25.59829 4.636081 32.45081 0.6503228 4.636081 32.45081 25.59829 3.636081 -0.5491926 25.59829 4.636081 32.45081 25.59829 3.636081 32.45081 25.59829 4.636081 -0.5491926 25.59829 4.636081 -0.5491926 25.59829 3.636081 -0.5491926 25.59829 4.636081 32.45081 25.59829 3.636081 32.45081 0.6503228 4.636081 -0.5491926 25.59829 3.636081 -0.5491926 0.6503228 3.636081 -0.5491926 25.59829 4.636081 -0.5491926 25.59829 4.636081 -0.5491926 0.6503228 4.636081 -0.5491926 25.59829 3.636081 -0.5491926 0.6503228 3.636081 -0.5491926 0.6503228 4.636081 32.45081 0.6503228 3.636081 -0.5491926 0.6503228 3.636081 32.45081 0.6503228 4.636081 -0.5491926 0.6503228 4.636081 -0.5491926 0.6503228 4.636081 32.45081 0.6503228 3.636081 -0.5491926 0.6503228 3.636081 32.45081 25.59829 3.636081 -0.5491926 25.06748 3.636081 -0.04919261 1.181131 3.636081 -0.04919261 25.59829 3.636081 32.45081 25.06748 3.636081 31.95081 1.181131 3.636081 31.95081 0.6503228 3.636081 -0.5491926 0.6503228 3.636081 32.45081 25.59829 3.636081 32.45081 1.181131 3.636081 31.95081 0.6503228 3.636081 32.45081 1.181131 3.636081 -0.04919261 25.59829 3.636081 -0.5491926 0.6503228 3.636081 -0.5491926 25.06748 3.636081 31.95081 25.06748 3.636081 -0.04919261</float_array>
                    <technique_common>
                        <accessor count="64" source="#ID10" stride="3">
                            <param name="X" type="float" />
                            <param name="Y" type="float" />
                            <param name="Z" type="float" />
                        </accessor>
                    </technique_common>
                </source>
                <source id="ID6">
                    <float_array id="ID11" count="192">7.120247e-016 1 -3.22974e-016 7.120247e-016 1 -3.22974e-016 7.120247e-016 1 -3.22974e-016 7.120247e-016 1 -3.22974e-016 7.120247e-016 1 -3.22974e-016 7.120247e-016 1 -3.22974e-016 7.120247e-016 1 -3.22974e-016 7.120247e-016 1 -3.22974e-016 -7.120247e-016 -1 3.22974e-016 -7.120247e-016 -1 3.22974e-016 -7.120247e-016 -1 3.22974e-016 -7.120247e-016 -1 3.22974e-016 -7.120247e-016 -1 3.22974e-016 -7.120247e-016 -1 3.22974e-016 -7.120247e-016 -1 3.22974e-016 -7.120247e-016 -1 3.22974e-016 -1.975256e-029 -2.131628e-014 1 -1.975256e-029 -2.131628e-014 1 -1.975256e-029 -2.131628e-014 1 -1.975256e-029 -2.131628e-014 1 1.975256e-029 2.131628e-014 -1 1.975256e-029 2.131628e-014 -1 1.975256e-029 2.131628e-014 -1 1.975256e-029 2.131628e-014 -1 1 -1.131485e-014 1.485788e-015 1 -1.131485e-014 1.485788e-015 1 -1.131485e-014 1.485788e-015 1 -1.131485e-014 1.485788e-015 -1 1.131485e-014 -1.485788e-015 -1 1.131485e-014 -1.485788e-015 -1 1.131485e-014 -1.485788e-015 -1 1.131485e-014 -1.485788e-015 8.032528e-016 4.457545e-014 -1 8.032528e-016 4.457545e-014 -1 8.032528e-016 4.457545e-014 -1 8.032528e-016 4.457545e-014 -1 -8.032528e-016 -4.457545e-014 1 -8.032528e-016 -4.457545e-014 1 -8.032528e-016 -4.457545e-014 1 -8.032528e-016 -4.457545e-014 1 -1 -1.885808e-015 -6.857484e-016 -1 -1.885808e-015 -6.857484e-016 -1 -1.885808e-015 -6.857484e-016 -1 -1.885808e-015 -6.857484e-016 1 1.885808e-015 6.857484e-016 1 1.885808e-015 6.857484e-016 1 1.885808e-015 6.857484e-016 1 1.885808e-015 6.857484e-016 -1.352847e-015 -1 -5.921189e-016 -1.352847e-015 -1 -5.921189e-016 -1.352847e-015 -1 -5.921189e-016 -1.352847e-015 -1 -5.921189e-016 -1.352847e-015 -1 -5.921189e-016 -1.352847e-015 -1 -5.921189e-016 -1.352847e-015 -1 -5.921189e-016 -1.352847e-015 -1 -5.921189e-016 1.352847e-015 1 5.921189e-016 1.352847e-015 1 5.921189e-016 1.352847e-015 1 5.921189e-016 1.352847e-015 1 5.921189e-016 1.352847e-015 1 5.921189e-016 1.352847e-015 1 5.921189e-016 1.352847e-015 1 5.921189e-016 1.352847e-015 1 5.921189e-016</float_array>
                    <technique_common>
                        <accessor count="64" source="#ID11" stride="3">
                            <param name="X" type="float" />
                            <param name="Y" type="float" />
                            <param name="Z" type="float" />
                        </accessor>
                    </technique_common>
                </source>
                <vertices id="ID7">
                    <input semantic="POSITION" source="#ID5" />
                    <input semantic="NORMAL" source="#ID6" />
                </vertices>
                <triangles count="24" material="Material2">
                    <input offset="0" semantic="VERTEX" source="#ID7" />
                    <p>0 1 2 1 0 3 1 3 4 4 3 5 2 6 7 6 2 1 7 6 5 7 5 3 16 17 18 17 16 19 24 25 26 25 24 27 32 33 34 33 32 35 40 41 42 41 40 43 48 49 50 49 48 51 49 51 52 52 51 53 54 50 55 50 54 48 55 50 53 55 53 51</p>
                </triangles>
                <triangles count="24" material="Material3">
                    <input offset="0" semantic="VERTEX" source="#ID7" />
                    <p>8 9 10 9 11 10 12 13 11 10 11 13 9 8 14 14 8 12 8 15 12 13 12 15 20 21 22 23 22 21 28 29 30 31 30 29 36 37 38 39 38 37 44 45 46 47 46 45 56 57 58 57 59 58 60 61 59 58 59 61 57 56 62 62 56 63 56 60 63 59 63 60</p>
                </triangles>
            </mesh>
        </geometry>
        <geometry id="ID12">
            <mesh>
                <source id="ID15">
                    <float_array id="ID18" count="96">25.06748 4.636081 31.95081 25.06748 3.886081 -0.04919261 25.06748 3.886081 31.95081 25.06748 4.636081 -0.04919261 25.06748 4.636081 -0.04919261 25.06748 4.636081 31.95081 25.06748 3.886081 -0.04919261 25.06748 3.886081 31.95081 25.06748 3.886081 -0.04919261 1.181131 4.636081 -0.04919261 1.181131 3.886081 -0.04919261 25.06748 4.636081 -0.04919261 25.06748 4.636081 -0.04919261 25.06748 3.886081 -0.04919261 1.181131 4.636081 -0.04919261 1.181131 3.886081 -0.04919261 25.06748 4.636081 31.95081 1.181131 3.886081 31.95081 1.181131 4.636081 31.95081 25.06748 3.886081 31.95081 25.06748 3.886081 31.95081 25.06748 4.636081 31.95081 1.181131 3.886081 31.95081 1.181131 4.636081 31.95081 1.181131 3.886081 -0.04919261 1.181131 4.636081 31.95081 1.181131 3.886081 31.95081 1.181131 4.636081 -0.04919261 1.181131 4.636081 -0.04919261 1.181131 3.886081 -0.04919261 1.181131 4.636081 31.95081 1.181131 3.886081 31.95081</float_array>
                    <technique_common>
                        <accessor count="32" source="#ID18" stride="3">
                            <param name="X" type="float" />
                            <param name="Y" type="float" />
                            <param name="Z" type="float" />
                        </accessor>
                    </technique_common>
                </source>
                <source id="ID16">
                    <float_array id="ID19" count="96">-1 5.028822e-015 -1.296493e-015 -1 5.028822e-015 -1.296493e-015 -1 5.028822e-015 -1.296493e-015 -1 5.028822e-015 -1.296493e-015 1 -5.028822e-015 1.296493e-015 1 -5.028822e-015 1.296493e-015 1 -5.028822e-015 1.296493e-015 1 -5.028822e-015 1.296493e-015 -8.040934e-016 1.332268e-015 1 -8.040934e-016 1.332268e-015 1 -8.040934e-016 1.332268e-015 1 -8.040934e-016 1.332268e-015 1 8.040934e-016 -1.332268e-015 -1 8.040934e-016 -1.332268e-015 -1 8.040934e-016 -1.332268e-015 -1 8.040934e-016 -1.332268e-015 -1 1.48734e-016 1.421085e-014 -1 1.48734e-016 1.421085e-014 -1 1.48734e-016 1.421085e-014 -1 1.48734e-016 1.421085e-014 -1 -1.48734e-016 -1.421085e-014 1 -1.48734e-016 -1.421085e-014 1 -1.48734e-016 -1.421085e-014 1 -1.48734e-016 -1.421085e-014 1 1 9.398242e-030 7.661096e-016 1 9.398242e-030 7.661096e-016 1 9.398242e-030 7.661096e-016 1 9.398242e-030 7.661096e-016 -1 -9.398242e-030 -7.661096e-016 -1 -9.398242e-030 -7.661096e-016 -1 -9.398242e-030 -7.661096e-016 -1 -9.398242e-030 -7.661096e-016</float_array>
                    <technique_common>
                        <accessor count="32" source="#ID19" stride="3">
                            <param name="X" type="float" />
                            <param name="Y" type="float" />
                            <param name="Z" type="float" />
                        </accessor>
                    </technique_common>
                </source>
                <vertices id="ID17">
                    <input semantic="POSITION" source="#ID15" />
                    <input semantic="NORMAL" source="#ID16" />
                </vertices>
                <triangles count="8" material="Material3">
                    <input offset="0" semantic="VERTEX" source="#ID17" />
                    <p>0 1 2 1 0 3 8 9 10 9 8 11 16 17 18 17 16 19 24 25 26 25 24 27</p>
                </triangles>
                <triangles count="8" material="Material2">
                    <input offset="0" semantic="VERTEX" source="#ID17" />
                    <p>4 5 6 7 6 5 12 13 14 15 14 13 20 21 22 23 22 21 28 29 30 31 30 29</p>
                </triangles>
            </mesh>
        </geometry>
        <geometry id="ID20">
            <mesh>
                <source id="ID21">
                    <float_array id="ID30" count="24">1.181131 3.886081 31.95081 25.06748 3.886081 -0.04919261 1.181131 3.886081 -0.04919261 25.06748 3.886081 31.95081 25.06748 3.886081 31.95081 1.181131 3.886081 31.95081 25.06748 3.886081 -0.04919261 1.181131 3.886081 -0.04919261</float_array>
                    <technique_common>
                        <accessor count="8" source="#ID30" stride="3">
                            <param name="X" type="float" />
                            <param name="Y" type="float" />
                            <param name="Z" type="float" />
                        </accessor>
                    </technique_common>
                </source>
                <source id="ID22">
                    <float_array id="ID31" count="24">-3.52273e-032 1 6.661338e-016 -3.52273e-032 1 6.661338e-016 -3.52273e-032 1 6.661338e-016 -3.52273e-032 1 6.661338e-016 3.52273e-032 -1 -6.661338e-016 3.52273e-032 -1 -6.661338e-016 3.52273e-032 -1 -6.661338e-016 3.52273e-032 -1 -6.661338e-016</float_array>
                    <technique_common>
                        <accessor count="8" source="#ID31" stride="3">
                            <param name="X" type="float" />
                            <param name="Y" type="float" />
                            <param name="Z" type="float" />
                        </accessor>
                    </technique_common>
                </source>
                <source id="ID29">
                    <float_array id="ID32" count="8">-0.0006023024 1.000667 -0.9788632 1.000667 -0.0006023024 0.0006668314 -0.9788632 0.0006668314</float_array>
                    <technique_common>
                        <accessor count="4" source="#ID32" stride="2">
                            <param name="S" type="float" />
                            <param name="T" type="float" />
                        </accessor>
                    </technique_common>
                </source>
                <vertices id="ID23">
                    <input semantic="POSITION" source="#ID21" />
                    <input semantic="NORMAL" source="#ID22" />
                </vertices>
                <triangles count="2" material="Material2">
                    <input offset="0" semantic="VERTEX" source="#ID23" />
                    <p>0 1 2 1 0 3</p>
                </triangles>
                <triangles count="2" material="Material3">
                    <input offset="0" semantic="VERTEX" source="#ID23" />
                    <input offset="1" semantic="TEXCOORD" source="#ID29" />
                    <p>4 0 5 1 6 2 7 3 6 2 5 1</p>
                </triangles>
            </mesh>
        </geometry>
        <geometry id="ID33">
            <mesh>
                <source id="ID36">
                    <float_array id="ID39" count="96">25.06748 3.886081 31.95081 25.06748 3.636081 -0.04919261 25.06748 3.636081 31.95081 25.06748 3.886081 -0.04919261 25.06748 3.886081 -0.04919261 25.06748 3.886081 31.95081 25.06748 3.636081 -0.04919261 25.06748 3.636081 31.95081 1.181131 3.886081 31.95081 25.06748 3.636081 31.95081 1.181131 3.636081 31.95081 25.06748 3.886081 31.95081 25.06748 3.886081 31.95081 1.181131 3.886081 31.95081 25.06748 3.636081 31.95081 1.181131 3.636081 31.95081 25.06748 3.636081 -0.04919261 1.181131 3.886081 -0.04919261 1.181131 3.636081 -0.04919261 25.06748 3.886081 -0.04919261 25.06748 3.886081 -0.04919261 25.06748 3.636081 -0.04919261 1.181131 3.886081 -0.04919261 1.181131 3.636081 -0.04919261 1.181131 3.636081 -0.04919261 1.181131 3.886081 31.95081 1.181131 3.636081 31.95081 1.181131 3.886081 -0.04919261 1.181131 3.886081 -0.04919261 1.181131 3.636081 -0.04919261 1.181131 3.886081 31.95081 1.181131 3.636081 31.95081</float_array>
                    <technique_common>
                        <accessor count="32" source="#ID39" stride="3">
                            <param name="X" type="float" />
                            <param name="Y" type="float" />
                            <param name="Z" type="float" />
                        </accessor>
                    </technique_common>
                </source>
                <source id="ID37">
                    <float_array id="ID40" count="96">-1 1.508647e-014 -1.296493e-015 -1 1.508647e-014 -1.296493e-015 -1 1.508647e-014 -1.296493e-015 -1 1.508647e-014 -1.296493e-015 1 -1.508647e-014 1.296493e-015 1 -1.508647e-014 1.296493e-015 1 -1.508647e-014 1.296493e-015 1 -1.508647e-014 1.296493e-015 1.48734e-016 1.421085e-014 -1 1.48734e-016 1.421085e-014 -1 1.48734e-016 1.421085e-014 -1 1.48734e-016 1.421085e-014 -1 -1.48734e-016 -1.421085e-014 1 -1.48734e-016 -1.421085e-014 1 -1.48734e-016 -1.421085e-014 1 -1.48734e-016 -1.421085e-014 1 -7.994455e-016 -7.105427e-014 1 -7.994455e-016 -7.105427e-014 1 -7.994455e-016 -7.105427e-014 1 -7.994455e-016 -7.105427e-014 1 7.994455e-016 7.105427e-014 -1 7.994455e-016 7.105427e-014 -1 7.994455e-016 7.105427e-014 -1 7.994455e-016 7.105427e-014 -1 1 -1.508647e-014 7.661096e-016 1 -1.508647e-014 7.661096e-016 1 -1.508647e-014 7.661096e-016 1 -1.508647e-014 7.661096e-016 -1 1.508647e-014 -7.661096e-016 -1 1.508647e-014 -7.661096e-016 -1 1.508647e-014 -7.661096e-016 -1 1.508647e-014 -7.661096e-016</float_array>
                    <technique_common>
                        <accessor count="32" source="#ID40" stride="3">
                            <param name="X" type="float" />
                            <param name="Y" type="float" />
                            <param name="Z" type="float" />
                        </accessor>
                    </technique_common>
                </source>
                <vertices id="ID38">
                    <input semantic="POSITION" source="#ID36" />
                    <input semantic="NORMAL" source="#ID37" />
                </vertices>
                <triangles count="8" material="Material3">
                    <input offset="0" semantic="VERTEX" source="#ID38" />
                    <p>0 1 2 1 0 3 8 9 10 9 8 11 16 17 18 17 16 19 24 25 26 25 24 27</p>
                </triangles>
                <triangles count="8" material="Material2">
                    <input offset="0" semantic="VERTEX" source="#ID38" />
                    <p>4 5 6 7 6 5 12 13 14 15 14 13 20 21 22 23 22 21 28 29 30 31 30 29</p>
                </triangles>
            </mesh>
        </geometry>
    </library_geometries>
    <library_materials>
        <material id="ID3" name="Color_007">
            <instance_effect url="#ID4" />
        </material>
        <material id="ID8" name="Color_000">
            <instance_effect url="#ID9" />
        </material>
        <material id="ID13" name="Color_008">
            <instance_effect url="#ID14" />
        </material>
        <material id="ID24" name="material_1">
            <instance_effect url="#ID25" />
        </material>
        <material id="ID34" name="Color_002">
            <instance_effect url="#ID35" />
        </material>
    </library_materials>
    <library_effects>
        <effect id="ID4">
            <profile_COMMON>
                <technique sid="COMMON">
                    <lambert>
                        <diffuse>
                            <color>0.227451 0.227451 0.227451 1</color>
                        </diffuse>
                    </lambert>
                </technique>
            </profile_COMMON>
        </effect>
        <effect id="ID9">
            <profile_COMMON>
                <technique sid="COMMON">
                    <lambert>
                        <diffuse>
                            <color>0.8901961 0.8901961 0.8901961 0</color>
                        </diffuse>
                        <transparent opaque="RGB_ZERO">
                            <color>1 1 1 1</color>
                        </transparent>
                        <transparency>
                            <float>1</float>
                        </transparency>
                    </lambert>
                </technique>
            </profile_COMMON>
        </effect>
        <effect id="ID14">
            <profile_COMMON>
                <technique sid="COMMON">
                    <lambert>
                        <diffuse>
                            <color>0.1176471 0.1176471 0.1176471 1</color>
                        </diffuse>
                    </lambert>
                </technique>
            </profile_COMMON>
        </effect>
        <effect id="ID25">
            <profile_COMMON>
                <newparam sid="ID27">
                    <surface type="2D">
                        <init_from>ID26</init_from>
                    </surface>
                </newparam>
                <newparam sid="ID28">
                    <sampler2D>
                        <source>ID27</source>
                    </sampler2D>
                </newparam>
                <technique sid="COMMON">
                    <lambert>
                        <diffuse>
                            <texture texture="ID28" texcoord="UVSET0" />
                        </diffuse>
                    </lambert>
                </technique>
            </profile_COMMON>
        </effect>
        <effect id="ID35">
            <profile_COMMON>
                <technique sid="COMMON">
                    <lambert>
                        <diffuse>
                            <color>0.7764706 0.7764706 0.7764706 1</color>
                        </diffuse>
                    </lambert>
                </technique>
            </profile_COMMON>
        </effect>
    </library_effects>
    <library_images>
        <image id="ID26">
            <init_from>Sayumi&apos;s%20Picture%20frame%203/material_1.jpg</init_from>
        </image>
    </library_images>
    <scene>
        <instance_visual_scene url="#ID1" />
    </scene>
</COLLADA>
